<svg xmlns="http://www.w3.org/2000/svg" width="1200" height="750" viewBox="0 0 1200 750"><defs><linearGradient id="bg" x2="1" y2="1"><stop stop-color="#101722"/><stop offset="1" stop-color="#241b12"/></linearGradient><linearGradient id="card"><stop stop-color="#ffca57"/><stop offset="1" stop-color="#ff8a5b"/></linearGradient></defs><rect width="1200" height="750" fill="url(#bg)"/><circle cx="980" cy="110" r="260" fill="#ffca57" opacity=".1"/><rect x="100" y="74" width="1000" height="602" rx="28" fill="#161c26" stroke="#ffca57" stroke-opacity=".38" stroke-width="3"/><circle cx="142" cy="112" r="8" fill="#ff765f"/><circle cx="170" cy="112" r="8" fill="#ffd45f"/><circle cx="198" cy="112" r="8" fill="#6ee7ac"/><text x="148" y="204" fill="#ffca57" font-family="Arial" font-weight="700" font-size="19" letter-spacing="4">DESPUÉS / UI REFINADA</text><text x="148" y="264" fill="#fff" font-family="Arial" font-weight="800" font-size="44">Jerarquía que guía la mirada.</text><rect x="148" y="310" width="904" height="280" rx="18" fill="#10151d" stroke="#ffffff" stroke-opacity=".1"/><rect x="190" y="350" width="280" height="200" rx="18" fill="url(#card)"/><circle cx="330" cy="425" r="55" fill="#171b22" opacity=".82"/><text x="330" y="438" text-anchor="middle" fill="#ffca57" font-family="Arial" font-weight="800" font-size="34">NT</text><text x="510" y="385" fill="#ffca57" font-family="Arial" font-size="17" font-weight="700">SISTEMA VISUAL</text><rect x="510" y="414" width="410" height="20" rx="6" fill="#f8f8f8"/><rect x="510" y="460" width="330" height="13" rx="6" fill="#7f8794"/><rect x="510" y="492" width="390" height="13" rx="6" fill="#7f8794"/><rect x="510" y="526" width="132" height="42" rx="10" fill="#ffca57"/></svg>
