<svg xmlns="http://www.w3.org/2000/svg" width="1200" height="630" viewBox="0 0 1200 630">
  <defs>
    <linearGradient id="night" x2="1" y2="1"><stop stop-color="#07151c"/><stop offset="1" stop-color="#1b0b25"/></linearGradient>
    <radialGradient id="orb" cx="32%" cy="25%"><stop stop-color="#efffff"/><stop offset=".18" stop-color="#72f4ff"/><stop offset=".52" stop-color="#6670ff"/><stop offset=".82" stop-color="#bb2f9f"/><stop offset="1" stop-color="#1b0a31"/></radialGradient>
  </defs>
  <rect width="1200" height="630" fill="#070a0f"/>
  <path d="M0 0h700v630H0z" fill="url(#night)"/>
  <text x="68" y="112" fill="#b8ff66" font-family="monospace" font-size="21">NT COMPARE LAB / 10</text>
  <text x="68" y="225" fill="#fff" font-family="Arial" font-size="67" font-weight="800">De borrador plano</text>
  <text x="68" y="300" fill="#72f4ff" font-family="Arial" font-size="67" font-weight="800">a experiencia viva.</text>
  <text x="68" y="367" fill="#a7b3c2" font-family="Arial" font-size="27">Before / After con 3D y motion</text>
  <circle cx="560" cy="482" r="82" fill="url(#orb)"/>
  <ellipse cx="560" cy="482" rx="129" ry="50" fill="none" stroke="#72f4ff" stroke-width="3" stroke-dasharray="12 9" transform="rotate(24 560 482)"/>
  <ellipse cx="560" cy="482" rx="119" ry="45" fill="none" stroke="#ff6dac" stroke-width="3" stroke-dasharray="18 11" transform="rotate(-38 560 482)"/>
  <path d="M700 0h500v630H700z" fill="#e1ded8"/>
  <rect x="700" width="500" height="74" fill="#c8c5bf"/>
  <rect x="760" y="130" width="252" height="25" fill="#8d8a85"/>
  <rect x="760" y="180" width="330" height="15" fill="#b5b2ac"/>
  <rect x="760" y="224" width="350" height="256" fill="#cfccc6" stroke="#a19e98" stroke-width="3"/>
  <circle cx="935" cy="350" r="74" fill="#b5b2ac"/>
  <path d="M880 344h110M898 375h74" stroke="#85827d" stroke-width="11"/>
  <rect x="820" y="505" width="230" height="78" fill="#c8c5bf"/>
  <path d="M700 0v630" stroke="#72f4ff" stroke-width="6"/>
  <circle cx="700" cy="315" r="43" fill="#10141d" stroke="#fff" stroke-width="3"/>
  <text x="700" y="325" text-anchor="middle" fill="#fff" font-family="Arial" font-size="26">↔</text>
</svg>
